<svg xmlns="http://www.w3.org/2000/svg" enable-background="new 0 0 24 24" viewBox="0 0 24 24" id="emergency"><g fill="#ffffff" class="color000000 svgShape"><path d="M12,12c0.5527,0,1-0.4473,1-1V8c0-0.5527-0.4473-1-1-1s-1,0.4473-1,1v3C11,11.5527,11.4473,12,12,12z" fill="#ffffff" class="color000000 svgShape"></path><circle cx="12" cy="14" r="1" fill="#ffffff" class="color000000 svgShape"></circle><path d="M20.1204,17.0988l0.2546-2.0353c0.4258-3.4072-0.0645-6.876-1.417-10.0322C18.1689,3.1895,16.3652,2,14.3623,2H9.6377
		C7.6348,2,5.8311,3.1895,5.042,5.0312c-1.3525,3.1562-1.8428,6.625-1.417,10.0322l0.2546,2.0353
		C2.7987,17.3769,2,18.2653,2,19.3281c0,1.1963,0.9951,2.1914,2.3154,2.3154C6.8652,21.8809,9.4326,21.999,12,21.999
		s5.1348-0.1182,7.6846-0.3555c0,0,0,0,0.001,0C21.0049,21.5195,22,20.5244,22,19.3281C22,18.2653,21.2013,17.3769,20.1204,17.0988z
		 M6.8799,5.8184C7.3535,4.7139,8.4365,4,9.6377,4h4.7246c1.2012,0,2.2842,0.7139,2.7578,1.8184
		c1.2129,2.8311,1.6523,5.9414,1.2705,8.9971L18.1172,17H5.8828l-0.2734-2.1846C5.2275,11.7598,5.667,8.6494,6.8799,5.8184z
		 M19.499,19.6514c-4.9756,0.4648-10.0215,0.4648-14.9971,0C4.1904,19.623,4,19.4434,4,19.3281C4,19.1973,4.2324,19,4.583,19H5h14
		h0.417C19.7676,19,20,19.1973,20,19.3281C20,19.4434,19.8096,19.6221,19.499,19.6514z" fill="#ffffff" class="color000000 svgShape"></path></g></svg>