<?xml version="1.0" standalone="no"?>
<!DOCTYPE svg PUBLIC "-//W3C//DTD SVG 20010904//EN"
 "http://www.w3.org/TR/2001/REC-SVG-20010904/DTD/svg10.dtd">
<svg version="1.0" xmlns="http://www.w3.org/2000/svg"
 width="200.000000pt" height="200.000000pt" viewBox="0 0 200.000000 200.000000"
 preserveAspectRatio="xMidYMid meet">

<g transform="translate(0.000000,200.000000) scale(0.100000,-0.100000)"
fill="#000000" stroke="none">
<path d="M0 1000 l0 -1000 1000 0 1000 0 0 1000 0 1000 -1000 0 -1000 0 0
-1000z m1071 645 c58 -21 114 -77 134 -133 30 -89 13 -152 -64 -234 l-54 -59
66 -66 66 -66 59 54 c57 53 110 79 164 79 51 0 117 -31 157 -75 84 -91 81
-208 -8 -296 -95 -96 -213 -91 -319 14 l-52 52 -67 -68 -68 -67 52 -52 c78
-79 98 -152 68 -239 -29 -82 -122 -149 -205 -149 -83 0 -176 67 -205 149 -30
87 -13 151 64 233 l54 59 -66 66 -66 66 -59 -54 c-83 -77 -145 -94 -235 -63
-81 27 -147 120 -147 205 0 81 69 177 148 204 89 30 152 13 234 -64 l59 -54
67 66 67 67 -52 52 c-52 53 -83 115 -83 167 0 82 67 176 145 205 53 19 93 19
146 1z"/>
<path d="M935 1505 c-19 -18 -25 -35 -25 -65 0 -35 7 -48 45 -88 l45 -47 45
47 c38 40 45 53 45 88 0 56 -34 90 -90 90 -30 0 -47 -6 -65 -25z"/>
<path d="M930 1065 l-65 -65 68 -68 67 -67 67 67 68 68 -65 65 c-35 36 -67 65
-70 65 -3 0 -35 -29 -70 -65z"/>
<path d="M495 1065 c-19 -18 -25 -35 -25 -65 0 -56 34 -90 90 -90 35 0 48 7
88 45 l47 45 -47 45 c-40 38 -53 45 -88 45 -30 0 -47 -6 -65 -25z"/>
<path d="M1352 1045 l-47 -45 47 -45 c40 -38 53 -45 88 -45 56 0 90 34 90 90
0 56 -34 90 -90 90 -35 0 -48 -7 -88 -45z"/>
<path d="M951 645 c-34 -37 -41 -51 -41 -85 0 -56 34 -90 90 -90 56 0 90 34
90 90 0 34 -7 48 -41 85 -23 25 -45 45 -49 45 -4 0 -26 -20 -49 -45z"/>
</g>
</svg>
